<svg width="27" height="26" viewBox="0 0 27 26" fill="none" xmlns="http://www.w3.org/2000/svg">
<rect x="1.25" y="1" width="24" height="24" rx="12" fill="white"/>
<path d="M20.7501 16.36C20.7501 18.3703 19.1204 20 17.1101 20C15.0998 20 13.4701 18.3703 13.4701 16.36C13.4701 14.3496 15.0998 12.72 17.1101 12.72C19.1204 12.72 20.7501 14.3496 20.7501 16.36Z" fill="#1CB355"/>
<path d="M13.47 9.36C13.47 11.2157 11.9657 12.72 10.11 12.72C8.25432 12.72 6.75 11.2157 6.75 9.36C6.75 7.50432 8.25432 6 10.11 6C11.9657 6 13.47 7.50432 13.47 9.36Z" fill="#0077FF"/>
<path d="M19.63 9.63996C19.63 11.0317 18.5018 12.16 17.11 12.16C15.7183 12.16 14.59 11.0317 14.59 9.63996C14.59 8.2482 15.7183 7.11996 17.11 7.11996C18.5018 7.11996 19.63 8.2482 19.63 9.63996Z" fill="#F16063"/>
<path d="M11.2299 16.0802C11.2299 17.0081 10.4778 17.7602 9.54993 17.7602C8.6221 17.7602 7.86993 17.0081 7.86993 16.0802C7.86993 15.1524 8.6221 14.4002 9.54993 14.4002C10.4778 14.4002 11.2299 15.1524 11.2299 16.0802Z" fill="#C521FF"/>
<rect x="1.25" y="1" width="24" height="24" rx="12" stroke="white" stroke-width="2"/>
</svg>
