<svg width="27" height="26" viewBox="0 0 27 26" fill="none" xmlns="http://www.w3.org/2000/svg">
<rect x="1.25" y="1" width="24" height="24" rx="12" fill="#0077FF" stroke="white" stroke-width="2"/>
<path d="M13.8886 17.55C9.00285 17.55 6.21609 14.1341 6.09998 8.45001H8.54732C8.62771 12.622 10.432 14.3892 11.8611 14.7535V8.45001H14.1655V12.0481C15.5767 11.8933 17.0594 10.2536 17.5596 8.45001H19.8641C19.6756 9.38541 19.2999 10.2711 18.7604 11.0516C18.221 11.8322 17.5294 12.4908 16.729 12.9863C17.6224 13.4391 18.4116 14.08 19.0444 14.8666C19.6772 15.6533 20.1392 16.5679 20.4 17.55H17.8633C17.6292 16.697 17.1535 15.9333 16.4957 15.3548C15.8379 14.7764 15.0273 14.4087 14.1655 14.2981V17.55H13.8886Z" fill="white"/>
</svg>
