<svg width="27" height="26" viewBox="0 0 27 26" fill="none" xmlns="http://www.w3.org/2000/svg">
<rect x="1.25" y="1" width="24" height="24" rx="12" fill="#1CB355" stroke="white" stroke-width="2"/>
<path d="M18.4024 7.84063C17.1183 6.56094 15.4061 5.85001 13.5988 5.85001C9.84146 5.85001 6.79756 8.88334 6.79756 12.6276C6.79756 13.8125 7.13049 14.9974 7.70122 15.9927L6.75 19.5L10.3646 18.5521C11.3634 19.0734 12.4573 19.3578 13.5988 19.3578C17.3561 19.3578 20.4 16.3245 20.4 12.5802C20.3524 10.8266 19.6866 9.12032 18.4024 7.84063ZM16.8805 15.0448C16.7378 15.424 16.0719 15.8031 15.739 15.8505C15.4537 15.8979 15.0732 15.8979 14.6927 15.8031C14.4549 15.7083 14.122 15.6135 13.7415 15.424C12.0293 14.713 10.9354 13.0068 10.8402 12.8646C10.7451 12.7698 10.1268 11.9641 10.1268 11.1109C10.1268 10.2578 10.5549 9.87865 10.6976 9.68907C10.8402 9.49948 11.0305 9.49948 11.1732 9.49948C11.2683 9.49948 11.411 9.49948 11.5061 9.49948C11.6012 9.49948 11.7439 9.45209 11.8866 9.78386C12.0293 10.1156 12.3622 10.9688 12.4098 11.0162C12.4573 11.1109 12.4573 11.2057 12.4098 11.3005C12.3622 11.3953 12.3146 11.4901 12.2195 11.5849C12.1244 11.6797 12.0293 11.8219 11.9817 11.8693C11.8866 11.9641 11.7915 12.0589 11.8866 12.201C11.9817 12.3906 12.3146 12.912 12.8378 13.3859C13.5037 13.9547 14.0268 14.1443 14.2171 14.2391C14.4073 14.3339 14.5024 14.2865 14.5976 14.1917C14.6927 14.0969 15.0256 13.7177 15.1207 13.5281C15.2159 13.3385 15.3585 13.3859 15.5012 13.4333C15.6439 13.4807 16.5 13.9073 16.6427 14.0021C16.8329 14.0969 16.928 14.1443 16.9756 14.1917C17.0232 14.3339 17.0232 14.6656 16.8805 15.0448Z" fill="white"/>
</svg>
